<svg width="58" height="58" viewBox="0 0 58 58" fill="none" xmlns="http://www.w3.org/2000/svg">
<path d="M28.4752 1.60046C29.088 1.2434 29.8454 1.2434 30.4582 1.60045L52.5065 14.4474C53.112 14.8002 53.4844 15.4482 53.4844 16.149V41.8847C53.4844 42.5855 53.112 43.2335 52.5065 43.5863L30.4582 56.4332C29.8454 56.7903 29.088 56.7903 28.4752 56.4332L6.42694 43.5863C5.82142 43.2335 5.449 42.5855 5.449 41.8847V16.149C5.449 15.4482 5.82142 14.8002 6.42694 14.4474L28.4752 1.60046Z" fill="#00ACAC" stroke="#00ACAC" stroke-width="1.31296"/>
<path d="M28.5215 13.1911C29.2077 12.7949 30.0531 12.7949 30.7393 13.1911L36.2699 16.3842C36.9561 16.7804 37.3788 17.5125 37.3788 18.3049V24.6911C37.3788 25.4834 36.9561 26.2156 36.2699 26.6117L30.7393 29.8048C30.0531 30.201 29.2077 30.201 28.5215 29.8048L22.9908 26.6117C22.3047 26.2156 21.8819 25.4834 21.8819 24.6911V18.3049C21.8819 17.5125 22.3047 16.7804 22.9908 16.3842L28.5215 13.1911Z" fill="#00ACAC" stroke="white" stroke-width="0.816259"/>
<path d="M22.0463 17.3265L26.9116 19.7115M37.2146 17.3265L32.5401 19.9023" stroke="white" stroke-width="0.667788" stroke-linecap="round"/>
<path d="M29.9167 26.0114C29.9188 25.827 29.771 25.6758 29.5866 25.6737C29.4022 25.6716 29.251 25.8194 29.249 26.0038L29.9167 26.0114ZM29.249 26.0038L29.2013 30.2013L29.869 30.2089L29.9167 26.0114L29.249 26.0038Z" fill="white"/>
<g clip-path="url(#clip0_226_128)">
<path d="M28.3865 21.6606C28.3865 20.2585 30.4377 19.3333 30.4377 17.8039C30.4377 16.9091 29.7741 16.132 29.6746 16.0864C29.6824 16.1491 29.6863 16.2137 29.6863 16.2764C29.6863 18.0262 26.8154 19.2003 26.8154 21.3794C26.8154 22.3255 27.4438 22.8841 28.1132 23.437C29.3838 24.3242 29.6375 24.7935 29.6375 25.0822C29.6375 25.2741 29.5438 25.4052 29.5438 25.5059C29.7995 25.1886 29.8834 24.8998 29.8853 24.6244C29.8853 24.062 29.4618 23.5547 29.0227 22.981C28.7104 22.5573 28.3865 22.1717 28.3865 21.6606ZM32.3932 20.9197C32.1571 19.6505 30.8709 18.5562 30.545 18.4327L30.6231 18.5695C30.6699 18.6664 30.6894 18.7766 30.6894 18.8944C30.6894 19.7436 29.6316 21.007 29.5848 21.1115C29.5418 21.2084 29.5223 21.311 29.5223 21.4117C29.5223 21.7936 29.819 22.2116 29.8717 22.2116C29.9185 22.2116 30.9763 21.159 31.0056 20.5454C31.1305 20.7677 31.1832 20.9747 31.1832 21.1799C31.1832 21.9627 30.3674 23.0209 30.3674 23.0209C30.3674 23.2413 30.99 24.0316 31.0602 24.0316C31.0798 24.0316 31.1032 24.005 31.1227 23.986C31.8624 23.2394 32.4362 22.3711 32.4362 21.387C32.4362 21.235 32.4225 21.0792 32.3932 20.9197Z" fill="white"/>
</g>
<path d="M20.3649 27.2101C21.0511 26.814 21.8965 26.814 22.5827 27.2101L28.1133 30.4032C28.7995 30.7994 29.2222 31.5316 29.2222 32.3239V38.7101C29.2222 39.5025 28.7995 40.2346 28.1133 40.6308L22.5827 43.8239C21.8965 44.2201 21.0511 44.2201 20.3649 43.8239L14.8343 40.6308C14.1481 40.2346 13.7254 39.5025 13.7254 38.7101V32.3239C13.7254 31.5316 14.1481 30.7994 14.8343 30.4032L20.3649 27.2101Z" fill="#00ACAC" stroke="white" stroke-width="0.816259"/>
<path d="M13.8897 31.3456L18.755 33.7305M29.058 31.3456L24.3835 33.9213" stroke="white" stroke-width="0.667788" stroke-linecap="round"/>
<path d="M21.76 40.0306C21.7621 39.8463 21.6143 39.6951 21.4299 39.693C21.2455 39.6909 21.0944 39.8387 21.0923 40.0231L21.76 40.0306ZM21.0923 40.0231L21.0446 44.2206L21.7123 44.2282L21.76 40.0306L21.0923 40.0231Z" fill="white"/>
<g clip-path="url(#clip1_226_128)">
<path d="M20.23 35.6795C20.23 34.2774 22.2812 33.3522 22.2812 31.8228C22.2812 30.928 21.6176 30.1509 21.5181 30.1053C21.5259 30.168 21.5298 30.2326 21.5298 30.2953C21.5298 32.0451 18.6589 33.2192 18.6589 35.3983C18.6589 36.3445 19.2873 36.903 19.9567 37.4559C21.2273 38.3431 21.481 38.8124 21.481 39.1011C21.481 39.293 21.3873 39.4241 21.3873 39.5248C21.643 39.2075 21.7269 38.9188 21.7288 38.6433C21.7288 38.0809 21.3053 37.5737 20.8662 36.9999C20.5539 36.5762 20.23 36.1906 20.23 35.6795ZM24.2367 34.9386C24.0006 33.6695 22.7144 32.5752 22.3885 32.4517L22.4666 32.5885C22.5134 32.6853 22.5329 32.7955 22.5329 32.9133C22.5329 33.7626 21.4751 35.026 21.4283 35.1305C21.3854 35.2273 21.3658 35.3299 21.3658 35.4306C21.3658 35.8125 21.6625 36.2305 21.7152 36.2305C21.762 36.2305 22.8198 35.178 22.8491 34.5643C22.974 34.7866 23.0267 34.9937 23.0267 35.1989C23.0267 35.9816 22.2109 37.0398 22.2109 37.0398C22.2109 37.2602 22.8335 38.0505 22.9038 38.0505C22.9233 38.0505 22.9467 38.0239 22.9662 38.0049C23.7059 37.2583 24.2797 36.3901 24.2797 35.4059C24.2797 35.2539 24.266 35.0982 24.2367 34.9386Z" fill="white"/>
</g>
<path d="M36.671 27.1978C37.3616 26.7991 38.2124 26.7991 38.903 27.1978L44.4336 30.3909C45.1242 30.7896 45.5496 31.5265 45.5496 32.3239V38.7101C45.5496 39.5075 45.1242 40.2444 44.4336 40.6431L38.903 43.8362C38.2124 44.2349 37.3616 44.2349 36.671 43.8362L31.1403 40.6431C30.4497 40.2444 30.0243 39.5075 30.0243 38.7101V32.3239C30.0243 31.5265 30.4497 30.7896 31.1403 30.3909L36.671 27.1978Z" fill="#00ACAC" stroke="white" stroke-width="0.787778"/>
<path d="M30.2029 31.3456L35.0682 33.7305M45.3712 31.3456L40.6967 33.9213" stroke="white" stroke-width="0.667788" stroke-linecap="round"/>
<path d="M38.0733 40.0306C38.0753 39.8463 37.9276 39.6951 37.7432 39.693C37.5588 39.6909 37.4076 39.8387 37.4055 40.0231L38.0733 40.0306ZM37.4055 40.0231L37.3578 44.2206L38.0256 44.2282L38.0733 40.0306L37.4055 40.0231Z" fill="white"/>
<g clip-path="url(#clip2_226_128)">
<path d="M36.5431 35.6795C36.5431 34.2774 38.5943 33.3522 38.5943 31.8228C38.5943 30.928 37.9308 30.1509 37.8312 30.1053C37.839 30.168 37.8429 30.2326 37.8429 30.2953C37.8429 32.0451 34.972 33.2192 34.972 35.3983C34.972 36.3445 35.6005 36.903 36.2699 37.4559C37.5404 38.3431 37.7942 38.8124 37.7942 39.1011C37.7942 39.293 37.7005 39.4241 37.7005 39.5248C37.9561 39.2075 38.0401 38.9188 38.042 38.6433C38.042 38.0809 37.6185 37.5737 37.1794 36.9999C36.8671 36.5762 36.5431 36.1906 36.5431 35.6795ZM40.5499 34.9386C40.3138 33.6695 39.0276 32.5752 38.7017 32.4517L38.7797 32.5885C38.8266 32.6853 38.8461 32.7955 38.8461 32.9133C38.8461 33.7626 37.7883 35.026 37.7415 35.1305C37.6985 35.2273 37.679 35.3299 37.679 35.4306C37.679 35.8125 37.9757 36.2305 38.0284 36.2305C38.0752 36.2305 39.133 35.178 39.1623 34.5643C39.2872 34.7866 39.3399 34.9937 39.3399 35.1989C39.3399 35.9816 38.5241 37.0398 38.5241 37.0398C38.5241 37.2602 39.1467 38.0505 39.2169 38.0505C39.2364 38.0505 39.2599 38.0239 39.2794 38.0049C40.0191 37.2583 40.5928 36.3901 40.5928 35.4059C40.5928 35.2539 40.5792 35.0982 40.5499 34.9386Z" fill="white"/>
</g>
<path d="M29.4667 56.0639V49.6304M52.3123 15.8872L45.3535 19.6948" stroke="white" stroke-width="1.83815" stroke-linecap="round"/>
<path d="M6.7525 15.6245L12.9234 18.7756" stroke="white" stroke-width="1.83815" stroke-linecap="round"/>
<defs>
<clipPath id="clip0_226_128">
<rect width="9.99254" height="9.72725" fill="white" transform="translate(24.6219 16.0864)"/>
</clipPath>
<clipPath id="clip1_226_128">
<rect width="9.99254" height="9.72725" fill="white" transform="translate(16.4654 30.1053)"/>
</clipPath>
<clipPath id="clip2_226_128">
<rect width="9.99254" height="9.72725" fill="white" transform="translate(32.7786 30.1053)"/>
</clipPath>
</defs>
</svg>
